
<svg width="16" height="16" viewBox="0 0 16 16" fill="none" xmlns="http://www.w3.org/2000/svg">
<path d="M14 7L14 4C13.9997 3.73487 13.8943 3.48068 13.7068 3.2932C13.5193 3.10572 13.2651 3.00028 13 3L3 3C2.73487 3.00028 2.48068 3.10572 2.2932 3.2932C2.10572 3.48068 2.00028 3.73487 2 4L2 7C2.00028 7.26513 2.10572 7.51932 2.2932 7.7068C2.48068 7.89428 2.73487 7.99972 3 8L13 8C13.2651 7.99972 13.5193 7.89428 13.7068 7.7068C13.8943 7.51932 13.9997 7.26513 14 7ZM3 4L13 4L13 7L3 7L3 4Z" fill="#1F1F1F"/>
<path d="M8 13.7594L5 10.7594L5.7594 10L8 12.2406L10.2406 10L11 10.7594L8 13.7594Z" fill="#1F1F1F"/>
</svg>
