<svg width="16" height="16" viewBox="0 0 16 16" fill="none" xmlns="http://www.w3.org/2000/svg">
<path d="M14.625 3.37992C14.3463 3.10024 14.0151 2.87833 13.6505 2.72692C13.2858 2.5755 12.8949 2.49756 12.5 2.49756C12.1052 2.49756 11.7142 2.5755 11.3496 2.72692C10.9849 2.87833 10.6537 3.10024 10.375 3.37992L11.085 4.08992C11.2712 3.90378 11.4922 3.75611 11.7354 3.65537C11.9786 3.55463 12.2393 3.50278 12.5025 3.50278C12.7658 3.50278 13.0264 3.55463 13.2697 3.65537C13.5129 3.75611 13.7339 3.90378 13.92 4.08992C14.1062 4.27607 14.2538 4.49706 14.3546 4.74028C14.4553 4.98349 14.5072 5.24417 14.5072 5.50742C14.5072 5.77068 14.4553 6.03135 14.3546 6.27457C14.2538 6.51778 14.1062 6.73878 13.92 6.92492L9.92002 10.9249C9.54473 11.3009 9.03548 11.5123 8.50428 11.5128C7.97309 11.5133 7.46346 11.3027 7.08752 10.9274C6.71157 10.5521 6.5001 10.0429 6.49964 9.51169C6.49917 8.98049 6.70973 8.47087 7.08502 8.09492L7.79002 7.38492L7.08502 6.67492L6.37502 7.38492C6.09534 7.66363 5.87343 7.99481 5.72201 8.35947C5.57059 8.72412 5.49265 9.11508 5.49265 9.50992C5.49265 9.90477 5.57059 10.2957 5.72201 10.6604C5.87343 11.025 6.09534 11.3562 6.37502 11.6349C6.94076 12.1934 7.70505 12.5045 8.50002 12.4999C8.89637 12.5016 9.28913 12.4246 9.65558 12.2736C10.022 12.1225 10.3549 11.9004 10.635 11.6199L14.635 7.61992C15.1955 7.0561 15.5093 6.29286 15.5074 5.49785C15.5055 4.70285 15.1881 3.9411 14.625 3.37992Z" fill="#1F1F1F"/>
<path d="M2.09502 12.4099C1.90831 12.2241 1.76016 12.0032 1.65907 11.7599C1.55798 11.5167 1.50593 11.2559 1.50593 10.9924C1.50593 10.729 1.55798 10.4682 1.65907 10.2249C1.76016 9.98165 1.90831 9.76076 2.09502 9.57492L6.09502 5.57492C6.28085 5.38822 6.50174 5.24007 6.745 5.13898C6.98826 5.03788 7.24909 4.98584 7.51252 4.98584C7.77594 4.98584 8.03677 5.03788 8.28003 5.13898C8.52329 5.24007 8.74418 5.38822 8.93002 5.57492C9.11554 5.76222 9.26158 5.98486 9.35949 6.22963C9.4574 6.47441 9.50519 6.73634 9.50002 6.99992C9.50154 7.26433 9.45062 7.52641 9.35021 7.771C9.2498 8.0156 9.10188 8.23786 8.91502 8.42492L7.85502 9.49992L8.56501 10.2099L9.62502 9.14992C10.1893 8.58568 10.5063 7.82039 10.5063 7.02242C10.5063 6.22446 10.1893 5.45917 9.62502 4.89492C9.06077 4.33068 8.29548 4.01368 7.49752 4.01368C6.69955 4.01368 5.93426 4.33068 5.37002 4.89492L1.37002 8.89492C1.08958 9.17373 0.867037 9.50522 0.715177 9.87033C0.563316 10.2354 0.485138 10.627 0.485138 11.0224C0.485138 11.4179 0.563316 11.8094 0.715177 12.1745C0.867037 12.5396 1.08958 12.8711 1.37002 13.1499C1.93943 13.7042 2.70546 14.0099 3.50002 13.9999C4.30157 14.0007 5.07087 13.6843 5.64002 13.1199L4.93002 12.4099C4.74418 12.5966 4.52329 12.7448 4.28003 12.8459C4.03677 12.947 3.77594 12.999 3.51252 12.999C3.24909 12.999 2.98826 12.947 2.745 12.8459C2.50174 12.7448 2.28085 12.5966 2.09502 12.4099Z" fill="#1F1F1F"/>
</svg>
