
<svg width="16" height="16" viewBox="0 0 16 16" fill="none" xmlns="http://www.w3.org/2000/svg">
<path d="M7 14H4C3.73487 13.9997 3.48068 13.8943 3.2932 13.7068C3.10572 13.5193 3.00028 13.2651 3 13V3C3.00028 2.73487 3.10572 2.48068 3.2932 2.2932C3.48068 2.10572 3.73487 2.00028 4 2H7C7.26513 2.00028 7.51932 2.10572 7.7068 2.2932C7.89428 2.48068 7.99972 2.73487 8 3V13C7.99972 13.2651 7.89428 13.5193 7.7068 13.7068C7.51932 13.8943 7.26513 13.9997 7 14ZM4 3V13H7V3H4Z" fill="#1F1F1F"/>
<path d="M13.7594 8L10.7594 5L10 5.7594L12.2406 8L10 10.2406L10.7594 11L13.7594 8Z" fill="#1F1F1F"/>
</svg>
