<svg width="16" height="16" viewBox="0 0 16 16" fill="none" xmlns="http://www.w3.org/2000/svg">
<path d="M9.125 12.5H4.5V3.5H8.75C9.25108 3.50003 9.74168 3.64348 10.1639 3.91339C10.586 4.18331 10.9221 4.56842 11.1324 5.02323C11.3427 5.47803 11.4185 5.98353 11.3507 6.48001C11.283 6.97649 11.0745 7.44319 10.75 7.825C11.1739 8.16398 11.4822 8.62601 11.6327 9.14748C11.7831 9.66896 11.7682 10.2242 11.59 10.7369C11.4118 11.2495 11.0791 11.6944 10.6376 12.0101C10.1962 12.3258 9.66773 12.497 9.125 12.5ZM6 11H9.115C9.26274 11 9.40903 10.9709 9.54552 10.9144C9.68201 10.8578 9.80603 10.775 9.91049 10.6705C10.015 10.566 10.0978 10.442 10.1544 10.3055C10.2109 10.169 10.24 10.0227 10.24 9.875C10.24 9.72726 10.2109 9.58097 10.1544 9.44448C10.0978 9.30799 10.015 9.18397 9.91049 9.0795C9.80603 8.97504 9.68201 8.89217 9.54552 8.83564C9.40903 8.7791 9.26274 8.75 9.115 8.75H6V11ZM6 7.25H8.75C8.89774 7.25 9.04403 7.2209 9.18052 7.16436C9.31701 7.10783 9.44103 7.02496 9.5455 6.9205C9.64996 6.81603 9.73283 6.69201 9.78936 6.55552C9.8459 6.41903 9.875 6.27274 9.875 6.125C9.875 5.97726 9.8459 5.83097 9.78936 5.69448C9.73283 5.55799 9.64996 5.43397 9.5455 5.3295C9.44103 5.22504 9.31701 5.14217 9.18052 5.08564C9.04403 5.0291 8.89774 5 8.75 5H6V7.25Z" fill="#1F1F1F"/>
</svg>
