<svg width="16" height="16" viewBox="0 0 16 16" fill="none" xmlns="http://www.w3.org/2000/svg">
<path d="M13.5 1.5H2.5C2.23478 1.5 1.98043 1.60536 1.79289 1.79289C1.60536 1.98043 1.5 2.23478 1.5 2.5V13.5C1.5 13.7652 1.60536 14.0196 1.79289 14.2071C1.98043 14.3946 2.23478 14.5 2.5 14.5H13.5C13.7652 14.5 14.0196 14.3946 14.2071 14.2071C14.3946 14.0196 14.5 13.7652 14.5 13.5V2.5C14.5 2.23478 14.3946 1.98043 14.2071 1.79289C14.0196 1.60536 13.7652 1.5 13.5 1.5ZM13.5 2.5V4.5H2.5V2.5H13.5ZM8.5 5.5H13.5V9H8.5V5.5ZM7.5 9H2.5V5.5H7.5V9ZM2.5 10H7.5V13.5H2.5V10ZM8.5 13.5V10H13.5V13.5H8.5Z" fill="#1F1F1F"/>
</svg>
