<svg width="15" height="16" viewBox="0 0 15 16" fill="none" xmlns="http://www.w3.org/2000/svg">
<path d="M3.42849 11.6735H0.91427V0.898103H4.57135V3.59195C4.57205 3.82989 4.6686 4.05788 4.83991 4.22613C5.01122 4.39438 5.24336 4.48921 5.48562 4.4899H8.22843V5.14293H9.1427V3.59195C9.14434 3.53294 9.13293 3.47428 9.10925 3.42002C9.08558 3.36577 9.0502 3.3172 9.00556 3.27767L5.80562 0.134847C5.76538 0.0909946 5.71593 0.0562419 5.66068 0.0329874C5.60543 0.00973299 5.54571 -0.00146916 5.48562 0.000154323H0.91427C0.672006 0.000841363 0.439864 0.095667 0.268556 0.263916C0.0972487 0.432166 0.000699528 0.660163 0 0.898103V11.6735C0.000699528 11.9114 0.0972487 12.1394 0.268556 12.3077C0.439864 12.4759 0.672006 12.5707 0.91427 12.5714H3.42849V11.6735ZM5.48562 1.07769L8.04558 3.59195H5.48562V1.07769Z" fill="#1F1F1F"/>
<path d="M10.8324 10.1869C11.0977 10.1869 11.3571 10.1082 11.5778 9.96079C11.7984 9.81337 11.9703 9.60384 12.0719 9.35869C12.1734 9.11354 12.2 8.84379 12.1482 8.58354C12.0965 8.32329 11.9687 8.08424 11.7811 7.89661C11.5934 7.70899 11.3544 7.58121 11.0941 7.52944C10.8339 7.47768 10.5641 7.50424 10.319 7.60579C10.0738 7.70733 9.86431 7.87929 9.71689 8.09992C9.56947 8.32054 9.49079 8.57993 9.49079 8.84528C9.49118 9.20098 9.63265 9.54199 9.88417 9.79351C10.1357 10.045 10.4767 10.1865 10.8324 10.1869ZM10.8324 8.39807C10.9209 8.39807 11.0073 8.4243 11.0809 8.47344C11.1544 8.52258 11.2117 8.59242 11.2456 8.67414C11.2794 8.75586 11.2883 8.84577 11.271 8.93252C11.2538 9.01927 11.2112 9.09896 11.1486 9.1615C11.0861 9.22404 11.0064 9.26663 10.9196 9.28389C10.8329 9.30115 10.743 9.29229 10.6613 9.25844C10.5795 9.22459 10.5097 9.16727 10.4606 9.09373C10.4114 9.02019 10.3852 8.93373 10.3852 8.84528C10.3853 8.72671 10.4325 8.61302 10.5163 8.52917C10.6001 8.44533 10.7138 8.39818 10.8324 8.39807Z" fill="#1F1F1F"/>
<path d="M13.9628 5.71484H5.46594C5.22882 5.71514 5.0015 5.80947 4.83383 5.97714C4.66616 6.14481 4.57183 6.37213 4.57153 6.60925V15.1061C4.57183 15.3433 4.66616 15.5706 4.83383 15.7383C5.0015 15.9059 5.22882 16.0003 5.46594 16.0006H13.9628C14.2 16.0003 14.4273 15.9059 14.595 15.7383C14.7626 15.5706 14.857 15.3433 14.8572 15.1061V6.60925C14.857 6.37213 14.7626 6.14481 14.595 5.97714C14.4273 5.80947 14.2 5.71514 13.9628 5.71484ZM13.9628 15.1061H5.46594V12.4229L7.25476 10.6354L9.7528 13.1335C9.92054 13.3012 10.148 13.3954 10.3852 13.3954C10.6224 13.3954 10.8499 13.3012 11.0176 13.1335L11.7268 12.4244L13.9628 14.6589V15.1061ZM13.9628 13.3942L12.3592 11.7905C12.1915 11.6228 11.964 11.5286 11.7268 11.5286C11.4896 11.5286 11.2621 11.6228 11.0944 11.7905L10.3852 12.4998L7.88716 10.0017C7.71942 9.834 7.49195 9.73979 7.25476 9.73979C7.01758 9.73979 6.7901 9.834 6.62237 10.0017L5.46594 11.1582V6.60925H13.9628V13.3942Z" fill="#1F1F1F"/>
</svg>
