
<svg width="16" height="16" viewBox="0 0 16 16" fill="none" xmlns="http://www.w3.org/2000/svg">
<path d="M0.721663 9.66287L5.14986 1.75569C5.23829 1.59779 5.40514 1.5 5.58611 1.5H10.4139C10.5949 1.5 10.7617 1.59779 10.8501 1.75569L15.2783 9.66287C15.3665 9.8203 15.363 10.013 15.2692 10.1672L12.8651 14.1164C12.7744 14.2654 12.6125 14.3564 12.438 14.3564H3.56197C3.38748 14.3564 3.22561 14.2654 3.13488 14.1164L0.730821 10.1672C0.636994 10.013 0.633495 9.8203 0.721663 9.66287Z" stroke="black" stroke-linecap="round" stroke-linejoin="round"/>
<path d="M15 10.0009L6 10.0009" stroke="black" stroke-linejoin="round"/>
<path fill-rule="evenodd" clip-rule="evenodd" d="M9.68694 10.0011H10.8331L5.93625 1.25676L5.06375 1.74536L9.68694 10.0011Z" fill="black"/>
<path fill-rule="evenodd" clip-rule="evenodd" d="M7.92744 5.57123L3.06375 14.2564L3.93625 14.745L8.50924 6.57895L7.92744 5.57123Z" fill="black"/>
</svg>
