
<svg width="16" height="16" viewBox="0 0 16 16" fill="none" xmlns="http://www.w3.org/2000/svg">
<path d="M13 8.99999H12L11 10.9485L10 8.99999H9L10.4525 11.5L9 14H10L11 12.1005L12 14H13L11.549 11.5L13 8.99999Z" fill="#1F1F1F"/>
<path d="M9.5 2.99999V1.99999H6.95665C6.7068 1.9989 6.46567 2.09181 6.28117 2.26029C6.09666 2.42876 5.98226 2.66047 5.9607 2.90939L5.6343 6.49999H3.5V7.49999H5.54335L5.04335 13H2.5V14H5.04335C5.2932 14.0011 5.53433 13.9082 5.71883 13.7397C5.90334 13.5712 6.01774 13.3395 6.0393 13.0906L6.5476 7.49999H9V6.49999H6.63845L6.95665 2.99999H9.5Z" fill="#1F1F1F"/>
</svg>
