
<svg width="16" height="16" viewBox="0 0 16 16" fill="none" xmlns="http://www.w3.org/2000/svg">
<path d="M14 9H11C10.7349 9.0003 10.4807 9.10576 10.2932 9.29323C10.1058 9.4807 10.0003 9.73488 10 10V11H7.20707L5.00002 8.79295V6H6.00002C6.26514 5.9997 6.51932 5.89424 6.70679 5.70677C6.89426 5.5193 6.99971 5.26512 7.00002 5V2C6.99971 1.73488 6.89426 1.4807 6.70679 1.29323C6.51932 1.10576 6.26514 1.0003 6.00002 1H3.00002C2.73489 1.0003 2.48072 1.10576 2.29325 1.29323C2.10578 1.4807 2.00032 1.73488 2.00002 2V5C2.00032 5.26512 2.10578 5.5193 2.29325 5.70677C2.48072 5.89424 2.73489 5.9997 3.00002 6H4.00002V8.79295L1.64652 11.1465C1.60007 11.1929 1.56322 11.248 1.53808 11.3087C1.51294 11.3693 1.5 11.4343 1.5 11.5C1.5 11.5657 1.51294 11.6307 1.53808 11.6913C1.56322 11.752 1.60007 11.8071 1.64652 11.8535L4.14652 14.3535C4.19293 14.3999 4.24804 14.4368 4.30869 14.4619C4.36935 14.4871 4.43436 14.5 4.50002 14.5C4.56568 14.5 4.63069 14.4871 4.69134 14.4619C4.752 14.4368 4.80711 14.3999 4.85352 14.3535L7.20707 12H10V13C10.0003 13.2651 10.1058 13.5193 10.2932 13.7068C10.4807 13.8942 10.7349 13.9997 11 14H14C14.2651 13.9997 14.5193 13.8942 14.7068 13.7068C14.8943 13.5193 14.9997 13.2651 15 13V10C14.9997 9.73488 14.8943 9.4807 14.7068 9.29323C14.5193 9.10576 14.2651 9.0003 14 9ZM3.00002 2H6.00002V5H3.00002V2ZM4.50002 13.2929L2.70707 11.5L4.50002 9.70705L6.29297 11.5L4.50002 13.2929ZM11 13V10H14V13H11Z" fill="#1F1F1F"/>
</svg>
