<svg width="16" height="16" viewBox="0 0 16 16" fill="none" xmlns="http://www.w3.org/2000/svg">
<path d="M15 11H8V12H15V11Z" fill="#1F1F1F"/>
<path d="M15 4H8V5H15V4Z" fill="#1F1F1F"/>
<path d="M4 6V2H3V2.5H2V3.5H3V6H2V7H5V6H4Z" fill="#1F1F1F"/>
<path d="M5 14H2V12C2 11.7348 2.10536 11.4804 2.29289 11.2929C2.48043 11.1054 2.73478 11 3 11H4V10H2V9H4C4.26522 9 4.51957 9.10536 4.70711 9.29289C4.89464 9.48043 5 9.73478 5 10V11C5 11.2652 4.89464 11.5196 4.70711 11.7071C4.51957 11.8946 4.26522 12 4 12H3V13H5V14Z" fill="#1F1F1F"/>
</svg>
