<svg width="16" height="16" viewBox="0 0 16 16" fill="none" xmlns="http://www.w3.org/2000/svg">
<path d="M14 7.49997H8.97815C8.75205 7.43812 8.5263 7.38377 8.3091 7.33237C6.90525 7.00032 6.1111 6.75707 6.1111 5.62082C6.09969 5.42464 6.12871 5.22821 6.19636 5.04372C6.26402 4.85923 6.36887 4.6906 6.5044 4.54832C6.92919 4.19898 7.46128 4.00653 8.01125 4.00332C9.4258 3.96832 10.0786 4.44802 10.6118 5.17832L11.4194 4.58872C11.0415 4.04583 10.5262 3.61301 9.92623 3.33448C9.32623 3.05595 8.66305 2.94171 8.00445 3.00342C7.19545 3.00858 6.41503 3.3032 5.80445 3.83397C5.57305 4.06868 5.39217 4.34831 5.27297 4.6556C5.15376 4.9629 5.09876 5.29135 5.11135 5.62072C5.08943 5.98122 5.15717 6.34155 5.30852 6.66948C5.45986 6.99742 5.6901 7.28274 5.97865 7.49997H2V8.49997H8.82595C9.80935 8.78497 10.3975 9.15612 10.4126 10.1789C10.4288 10.3975 10.3988 10.617 10.3245 10.8231C10.2503 11.0293 10.1334 11.2175 9.98145 11.3755C9.4524 11.7925 8.79512 12.0132 8.1216 12C7.61884 11.9854 7.12598 11.8567 6.6803 11.6235C6.23462 11.3904 5.84778 11.059 5.54905 10.6544L4.78245 11.2965C5.17082 11.814 5.67191 12.2364 6.24773 12.5315C6.82356 12.8267 7.45902 12.9869 8.10595 13C8.11035 12.9994 8.12695 13 8.15595 13C9.07935 13.0106 9.97558 12.6877 10.68 12.0906C10.93 11.8385 11.1243 11.5368 11.2505 11.205C11.3766 10.8731 11.4318 10.5185 11.4124 10.164C11.4311 9.55765 11.2266 8.96551 10.8377 8.49997H14V7.49997Z" fill="#1F1F1F"/>
</svg>
