
<svg width="16" height="16" viewBox="0 0 16 16" fill="none" xmlns="http://www.w3.org/2000/svg">
<path fill-rule="evenodd" clip-rule="evenodd" d="M2 4V8.5V13H3V9H7V13H8V4H7V8H3V4H2ZM11.6088 7.29307L11.6 13H12.56L12.57 6H11.7092L11.7 5.99C11.5467 6.16333 11.37 6.33 11.17 6.49C10.97 6.65 10.77 6.78 10.57 6.88C10.3767 6.98 10.2067 7.02667 10.06 7.02V7.91C10.3267 7.92333 10.5867 7.87333 10.84 7.76C11.1 7.64667 11.3533 7.49333 11.6 7.3C11.6029 7.29769 11.6059 7.29539 11.6088 7.29307Z" fill="black"/>
</svg>
