<svg width="16" height="16" viewBox="0 0 16 16" fill="none" xmlns="http://www.w3.org/2000/svg">
<path d="M10 5H3.90745L5.70115 3.20705L5 2.5L2 5.5L5 8.5L5.70115 7.7927L3.90895 6H10C10.7956 6 11.5587 6.31607 12.1213 6.87868C12.6839 7.44129 13 8.20435 13 9C13 9.79565 12.6839 10.5587 12.1213 11.1213C11.5587 11.6839 10.7956 12 10 12H6V13H10C11.0609 13 12.0783 12.5786 12.8284 11.8284C13.5786 11.0783 14 10.0609 14 9C14 7.93913 13.5786 6.92172 12.8284 6.17157C12.0783 5.42143 11.0609 5 10 5Z" fill="#1F1F1F"/>
</svg>
