
<svg width="16" height="16" viewBox="0 0 16 16" fill="none" xmlns="http://www.w3.org/2000/svg">
<path d="M9 14H12C12.2651 13.9997 12.5193 13.8943 12.7068 13.7068C12.8943 13.5193 12.9997 13.2651 13 13V3C12.9997 2.73487 12.8943 2.48068 12.7068 2.2932C12.5193 2.10572 12.2651 2.00028 12 2H9C8.73487 2.00028 8.48068 2.10572 8.2932 2.2932C8.10572 2.48068 8.00028 2.73487 8 3V13C8.00028 13.2651 8.10572 13.5193 8.2932 13.7068C8.48068 13.8943 8.73487 13.9997 9 14ZM12 3V13H9V3H12Z" fill="#1F1F1F"/>
<path d="M2.2406 8L5.2406 5L6 5.7594L3.7594 8L6 10.2406L5.2406 11L2.2406 8Z" fill="#1F1F1F"/>
</svg>
