
<svg width="16" height="16" viewBox="0 0 16 16" fill="none" xmlns="http://www.w3.org/2000/svg">
<path d="M2 9L2 12C2.00028 12.2651 2.10572 12.5193 2.2932 12.7068C2.48068 12.8943 2.73487 12.9997 3 13L13 13C13.2651 12.9997 13.5193 12.8943 13.7068 12.7068C13.8943 12.5193 13.9997 12.2651 14 12L14 9C13.9997 8.73487 13.8943 8.48068 13.7068 8.2932C13.5193 8.10572 13.2651 8.00028 13 8L3 8C2.73487 8.00028 2.48068 8.10572 2.2932 8.2932C2.10572 8.48068 2.00028 8.73487 2 9ZM13 12L3 12L3 9L13 9L13 12Z" fill="#1F1F1F"/>
<path d="M8 2.2406L11 5.2406L10.2406 6L8 3.7594L5.7594 6L5 5.2406L8 2.2406Z" fill="#1F1F1F"/>
</svg>
