
<svg width="230" height="231" viewBox="0 0 230 231" fill="none" xmlns="http://www.w3.org/2000/svg">
<g clip-path="url(#clip0_601_5062)">
<rect width="230" height="230.753" rx="115" fill="#F6F6F6" class="green" />
<path d="M163.333 173H66.6667C64.1037 172.997 61.6465 171.978 59.8343 170.166C58.022 168.353 57.0027 165.896 57 163.333V90.8333C57.0027 88.2704 58.022 85.8132 59.8343 84.0009C61.6465 82.1887 64.1037 81.1694 66.6667 81.1667H94.0548C96.1468 81.1701 98.182 81.8481 99.8581 83.1L116.612 95.6667H163.333C165.896 95.6694 168.353 96.6887 170.166 98.5009C171.978 100.313 172.997 102.77 173 105.333V163.333C172.997 165.896 171.978 168.353 170.166 170.166C168.353 171.978 165.896 172.997 163.333 173ZM94.0548 90.8333H66.6594L66.6667 163.333H163.333V105.333H113.388L94.0548 90.8333Z" fill="#D9D9D9" class="secondary-light-green" />
<path d="M173 81.1667H123.055L103.721 66.6667H66.6667V57H103.721C105.813 57.0034 107.849 57.6814 109.525 58.9333L126.279 71.5H173V81.1667Z" fill="#D9D9D9" class="secondary-light-green" />
<path d="M66.6667 163.333V90.833H95.6667L115 105.333H163.333V163.333H66.6667Z" fill="#EAECEB" class="light-green" />
<rect x="132" y="129" width="62" height="62" rx="31" fill="#BABABA"/>
<rect x="132" y="129" width="62" height="62" rx="31" stroke="#F6F6F6" stroke-width="4" class="green" />
<path d="M151.125 162.875L152.799 164.549L161.812 155.548V177.125H164.188V155.548L173.201 164.549L174.875 162.875L163 151L151.125 162.875Z" fill="white"/>
<path d="M151.125 151V146.25H174.875V151H177.25V146.25C177.25 145.62 177 145.016 176.554 144.571C176.109 144.125 175.505 143.875 174.875 143.875H151.125C150.495 143.875 149.891 144.125 149.446 144.571C149 145.016 148.75 145.62 148.75 146.25V151H151.125Z" fill="white"/>
</g>
<defs>
<clipPath id="clip0_601_5062">
<rect width="230" height="230.753" rx="115" fill="white"/>
</clipPath>
</defs>
</svg>
