
<svg width="16" height="16" viewBox="0 0 16 16" fill="none" xmlns="http://www.w3.org/2000/svg">
<path fill-rule="evenodd" clip-rule="evenodd" d="M2 4V8.5V13H3V9H7V13H8V4H7V8H3V4H2ZM11.0811 12.12C11.0992 12.0472 11.1222 11.9772 11.15 11.91C11.2367 11.71 11.3567 11.5267 11.51 11.36C11.6633 11.1933 11.8367 11.04 12.03 10.9L13.28 9.96C13.6733 9.65333 13.9733 9.33667 14.18 9.01C14.3933 8.68333 14.5 8.32667 14.5 7.94C14.5 7.54 14.4033 7.18667 14.21 6.88C14.0167 6.56667 13.7433 6.32333 13.39 6.15C13.0433 5.97 12.63 5.88 12.15 5.88C11.73 5.88 11.3533 5.96333 11.02 6.13C10.6867 6.29 10.4133 6.50333 10.2 6.77C9.98667 7.03667 9.84333 7.32333 9.77 7.63L10.78 7.82C10.8333 7.64 10.9233 7.47 11.05 7.31C11.1767 7.15 11.3333 7.02333 11.52 6.93C11.7133 6.83 11.9367 6.78 12.19 6.78C12.4567 6.78 12.6867 6.83333 12.88 6.94C13.0733 7.04 13.2233 7.18 13.33 7.36C13.4367 7.53333 13.49 7.72667 13.49 7.94C13.49 8.1 13.45 8.26333 13.37 8.43C13.2967 8.59 13.1933 8.74667 13.06 8.9C12.9333 9.04667 12.79 9.17667 12.63 9.29L11.28 10.29C11.0267 10.4767 10.8067 10.68 10.62 10.9C10.44 11.12 10.3 11.3433 10.2 11.57C10.1067 11.79 10.06 12.0033 10.06 12.21V13H14.59V12.12H11.0811Z" fill="black"/>
</svg>
