<svg width="16" height="16" viewBox="0 0 16 16" fill="none" xmlns="http://www.w3.org/2000/svg">
<path d="M14 13H2V14H14V13Z" fill="#1F1F1F"/>
<path d="M8 11.5C7.07174 11.5 6.1815 11.1313 5.52513 10.4749C4.86875 9.8185 4.5 8.92826 4.5 8V2.5H5.5V8C5.5 8.66304 5.76339 9.29893 6.23223 9.76777C6.70107 10.2366 7.33696 10.5 8 10.5C8.66304 10.5 9.29893 10.2366 9.76777 9.76777C10.2366 9.29893 10.5 8.66304 10.5 8V2.5H11.5V8C11.5 8.92826 11.1313 9.8185 10.4749 10.4749C9.8185 11.1313 8.92826 11.5 8 11.5Z" fill="#1F1F1F"/>
</svg>
